{
  "accessors": [
    {
      "bufferView": 2,
      "componentType": 5126,
      "count": 2484,
      "max": [
        11.740678787231445,
        11.740678787231445,
        16.77068519592285
      ],
      "min": [
        -11.740678787231445,
        -11.740678787231445,
        8.070684432983398
      ],
      "type": "VEC3"
    },
    {
      "bufferView": 2,
      "byteOffset": 29808,
      "componentType": 5126,
      "count": 2484,
      "type": "VEC3"
    },
    {
      "bufferView": 1,
      "componentType": 5126,
      "count": 2484,
      "type": "VEC2"
    },
    {
      "bufferView": 0,
      "componentType": 5125,
      "count": 7662,
      "type": "SCALAR"
    },
    {
      "bufferView": 2,
      "byteOffset": 59616,
      "componentType": 5126,
      "count": 384,
      "max": [
        10.7537202835083,
        10.7537202835083,
        11.65848445892334
      ],
      "min": [
        -10.7537202835083,
        -10.7537202835083,
        10.201212882995605
      ],
      "type": "VEC3"
    },
    {
      "bufferView": 2,
      "byteOffset": 64224,
      "componentType": 5126,
      "count": 384,
      "type": "VEC3"
    },
    {
      "bufferView": 1,
      "byteOffset": 19872,
      "componentType": 5126,
      "count": 384,
      "type": "VEC2"
    },
    {
      "bufferView": 0,
      "byteOffset": 30648,
      "componentType": 5125,
      "count": 1146,
      "type": "SCALAR"
    },
    {
      "bufferView": 2,
      "byteOffset": 68832,
      "componentType": 5126,
      "count": 5349,
      "max": [
        22.76622772216797,
        22.76622772216797,
        18.523345947265625
      ],
      "min": [
        -22.76622772216797,
        -22.76622772216797,
        -2.8748979568481445
      ],
      "type": "VEC3"
    },
    {
      "bufferView": 2,
      "byteOffset": 133020,
      "componentType": 5126,
      "count": 5349,
      "type": "VEC3"
    },
    {
      "bufferView": 1,
      "byteOffset": 22944,
      "componentType": 5126,
      "count": 5349,
      "type": "VEC2"
    },
    {
      "bufferView": 0,
      "byteOffset": 35232,
      "componentType": 5125,
      "count": 16956,
      "type": "SCALAR"
    },
    {
      "bufferView": 2,
      "byteOffset": 197208,
      "componentType": 5126,
      "count": 264,
      "max": [
        17.832454681396484,
        17.832454681396484,
        0.28371667861938477
      ],
      "min": [
        -17.832454681396484,
        -21.507373809814453,
        0.04084205627441406
      ],
      "type": "VEC3"
    },
    {
      "bufferView": 2,
      "byteOffset": 200376,
      "componentType": 5126,
      "count": 264,
      "type": "VEC3"
    },
    {
      "bufferView": 1,
      "byteOffset": 65736,
      "componentType": 5126,
      "count": 264,
      "type": "VEC2"
    },
    {
      "bufferView": 0,
      "byteOffset": 103056,
      "componentType": 5125,
      "count": 780,
      "type": "SCALAR"
    },
    {
      "bufferView": 2,
      "byteOffset": 203544,
      "componentType": 5126,
      "count": 282,
      "max": [
        12.457523345947266,
        12.457523345947266,
        0.17338991165161133
      ],
      "min": [
        -12.457523345947266,
        -21.115230560302734,
        -0.3184995651245117
      ],
      "type": "VEC3"
    },
    {
      "bufferView": 2,
      "byteOffset": 206928,
      "componentType": 5126,
      "count": 282,
      "type": "VEC3"
    },
    {
      "bufferView": 1,
      "byteOffset": 67848,
      "componentType": 5126,
      "count": 282,
      "type": "VEC2"
    },
    {
      "bufferView": 0,
      "byteOffset": 106176,
      "componentType": 5125,
      "count": 816,
      "type": "SCALAR"
    },
    {
      "bufferView": 2,
      "byteOffset": 210312,
      "componentType": 5126,
      "count": 216,
      "max": [
        15.929938316345215,
        17.64785385131836,
        11.794880867004395
      ],
      "min": [
        -15.929938316345215,
        -17.64785385131836,
        7.2479047775268555
      ],
      "type": "VEC3"
    },
    {
      "bufferView": 2,
      "byteOffset": 212904,
      "componentType": 5126,
      "count": 216,
      "type": "VEC3"
    },
    {
      "bufferView": 1,
      "byteOffset": 70104,
      "componentType": 5126,
      "count": 216,
      "type": "VEC2"
    },
    {
      "bufferView": 0,
      "byteOffset": 109440,
      "componentType": 5125,
      "count": 360,
      "type": "SCALAR"
    },
    {
      "bufferView": 2,
      "byteOffset": 215496,
      "componentType": 5126,
      "count": 578,
      "max": [
        21.824872970581055,
        13.323802947998047,
        9.622968673706055
      ],
      "min": [
        -21.927684783935547,
        -13.554405212402344,
        0.04963097721338272
      ],
      "type": "VEC3"
    },
    {
      "bufferView": 2,
      "byteOffset": 222432,
      "componentType": 5126,
      "count": 578,
      "type": "VEC3"
    },
    {
      "bufferView": 1,
      "byteOffset": 71832,
      "componentType": 5126,
      "count": 578,
      "type": "VEC2"
    },
    {
      "bufferView": 0,
      "byteOffset": 110880,
      "componentType": 5125,
      "count": 1224,
      "type": "SCALAR"
    },
    {
      "bufferView": 2,
      "byteOffset": 229368,
      "componentType": 5126,
      "count": 56,
      "max": [
        18.48870849609375,
        11.154424667358398,
        9.29382610321045
      ],
      "min": [
        -18.589025497436523,
        -11.47813606262207,
        0.04963097721338272
      ],
      "type": "VEC3"
    },
    {
      "bufferView": 2,
      "byteOffset": 230040,
      "componentType": 5126,
      "count": 56,
      "type": "VEC3"
    },
    {
      "bufferView": 1,
      "byteOffset": 76456,
      "componentType": 5126,
      "count": 56,
      "type": "VEC2"
    },
    {
      "bufferView": 0,
      "byteOffset": 115776,
      "componentType": 5125,
      "count": 120,
      "type": "SCALAR"
    },
    {
      "bufferView": 2,
      "byteOffset": 230712,
      "componentType": 5126,
      "count": 14634,
      "max": [
        22.739416122436523,
        22.73924446105957,
        3.5372400283813477
      ],
      "min": [
        -22.73995018005371,
        -22.74060821533203,
        1.0307884216308594
      ],
      "type": "VEC3"
    },
    {
      "bufferView": 2,
      "byteOffset": 406320,
      "componentType": 5126,
      "count": 14634,
      "type": "VEC3"
    },
    {
      "bufferView": 1,
      "byteOffset": 76904,
      "componentType": 5126,
      "count": 14634,
      "type": "VEC2"
    },
    {
      "bufferView": 0,
      "byteOffset": 116256,
      "componentType": 5125,
      "count": 21960,
      "type": "SCALAR"
    },
    {
      "bufferView": 2,
      "byteOffset": 581928,
      "componentType": 5126,
      "count": 240,
      "max": [
        21.771520614624023,
        21.77240753173828,
        2.3239712715148926
      ],
      "min": [
        -21.77324676513672,
        -21.7740421295166,
        2.271198272705078
      ],
      "type": "VEC3"
    },
    {
      "bufferView": 2,
      "byteOffset": 584808,
      "componentType": 5126,
      "count": 240,
      "type": "VEC3"
    },
    {
      "bufferView": 1,
      "byteOffset": 193976,
      "componentType": 5126,
      "count": 240,
      "type": "VEC2"
    },
    {
      "bufferView": 0,
      "byteOffset": 204096,
      "componentType": 5125,
      "count": 360,
      "type": "SCALAR"
    }
  ],
  "asset": {
    "generator": "fab-model-conversion",
    "version": "2.0"
  },
  "bufferViews": [
    {
      "buffer": 0,
      "byteLength": 205536,
      "target": 34963
    },
    {
      "buffer": 0,
      "byteLength": 195896,
      "byteOffset": 205536,
      "byteStride": 8,
      "target": 34962
    },
    {
      "buffer": 0,
      "byteLength": 587688,
      "byteOffset": 401432,
      "byteStride": 12,
      "target": 34962
    }
  ],
  "buffers": [
    {
      "byteLength": 989120,
      "uri": "scene.bin"
    }
  ],
  "extensionsUsed": [
    "KHR_materials_emissive_strength"
  ],
  "images": [
    {
      "uri": "textures/Material.005_baseColor.png"
    },
    {
      "uri": "textures/Material.003_baseColor.png"
    },
    {
      "uri": "textures/Material.008_baseColor.png"
    },
    {
      "uri": "textures/Material.011_baseColor.png"
    },
    {
      "uri": "textures/Material.001_baseColor.png"
    }
  ],
  "materials": [
    {
      "doubleSided": true,
      "emissiveFactor": [
        1.0,
        1.0,
        1.0
      ],
      "emissiveTexture": {
        "index": 0
      },
      "name": "Material.005",
      "pbrMetallicRoughness": {
        "baseColorTexture": {
          "index": 0
        },
        "metallicFactor": 0.0,
        "roughnessFactor": 0.9950852791102139
      }
    },
    {
      "doubleSided": true,
      "emissiveFactor": [
        1.0,
        1.0,
        1.0
      ],
      "emissiveTexture": {
        "index": 0
      },
      "extensions": {
        "KHR_materials_emissive_strength": {
          "emissiveStrength": 2.1149425287356323
        }
      },
      "name": "Material.006",
      "pbrMetallicRoughness": {
        "baseColorTexture": {
          "index": 0
        },
        "metallicFactor": 0.0,
        "roughnessFactor": 0.8040408205773457
      }
    },
    {
      "emissiveFactor": [
        1.0,
        1.0,
        1.0
      ],
      "emissiveTexture": {
        "index": 1
      },
      "name": "Material.003",
      "pbrMetallicRoughness": {
        "baseColorTexture": {
          "index": 1
        },
        "metallicFactor": 0.0,
        "roughnessFactor": 0.9909542776858616
      }
    },
    {
      "doubleSided": true,
      "emissiveFactor": [
        1.0,
        1.0,
        1.0
      ],
      "emissiveTexture": {
        "index": 1
      },
      "extensions": {
        "KHR_materials_emissive_strength": {
          "emissiveStrength": 10
        }
      },
      "name": "Material.007",
      "pbrMetallicRoughness": {
        "baseColorTexture": {
          "index": 1
        },
        "metallicFactor": 0.0,
        "roughnessFactor": 0.8040408205773457
      }
    },
    {
      "doubleSided": true,
      "emissiveFactor": [
        1.0,
        1.0,
        1.0
      ],
      "emissiveTexture": {
        "index": 1
      },
      "extensions": {
        "KHR_materials_emissive_strength": {
          "emissiveStrength": 10
        }
      },
      "name": "Material.004",
      "pbrMetallicRoughness": {
        "baseColorTexture": {
          "index": 1
        },
        "metallicFactor": 0.0,
        "roughnessFactor": 0.8040408205773457
      }
    },
    {
      "doubleSided": true,
      "emissiveFactor": [
        1.0,
        1.0,
        1.0
      ],
      "emissiveTexture": {
        "index": 2
      },
      "name": "Material.008",
      "pbrMetallicRoughness": {
        "baseColorTexture": {
          "index": 2
        },
        "metallicFactor": 0.0,
        "roughnessFactor": 0.9950852791102139
      }
    },
    {
      "doubleSided": true,
      "emissiveFactor": [
        1.0,
        1.0,
        1.0
      ],
      "emissiveTexture": {
        "index": 3
      },
      "name": "Material.011",
      "pbrMetallicRoughness": {
        "baseColorTexture": {
          "index": 3
        },
        "metallicFactor": 0.0,
        "roughnessFactor": 0.9843523317036531
      }
    },
    {
      "doubleSided": true,
      "emissiveFactor": [
        1.0,
        1.0,
        1.0
      ],
      "emissiveTexture": {
        "index": 3
      },
      "name": "Material.010",
      "pbrMetallicRoughness": {
        "baseColorTexture": {
          "index": 3
        },
        "metallicFactor": 0.0,
        "roughnessFactor": 0.8040408205773457
      }
    },
    {
      "doubleSided": true,
      "emissiveFactor": [
        1.0,
        1.0,
        1.0
      ],
      "emissiveTexture": {
        "index": 2
      },
      "name": "Material.001",
      "pbrMetallicRoughness": {
        "baseColorTexture": {
          "index": 4
        },
        "metallicFactor": 0.0,
        "roughnessFactor": 0.8211145618000169
      }
    },
    {
      "doubleSided": true,
      "emissiveFactor": [
        1.0,
        1.0,
        1.0
      ],
      "emissiveTexture": {
        "index": 4
      },
      "extensions": {
        "KHR_materials_emissive_strength": {
          "emissiveStrength": 10
        }
      },
      "name": "Material.002",
      "pbrMetallicRoughness": {
        "baseColorTexture": {
          "index": 4
        },
        "metallicFactor": 0.0,
        "roughnessFactor": 0.8040408205773457
      }
    }
  ],
  "meshes": [
    {
      "name": "roof_Material.005_0",
      "primitives": [
        {
          "attributes": {
            "NORMAL": 1,
            "POSITION": 0,
            "TEXCOORD_0": 2
          },
          "indices": 3,
          "material": 0,
          "mode": 4
        }
      ]
    },
    {
      "name": "roof_Material.006_0",
      "primitives": [
        {
          "attributes": {
            "NORMAL": 5,
            "POSITION": 4,
            "TEXCOORD_0": 6
          },
          "indices": 7,
          "material": 1,
          "mode": 4
        }
      ]
    },
    {
      "name": "Box_Material.003_0",
      "primitives": [
        {
          "attributes": {
            "NORMAL": 9,
            "POSITION": 8,
            "TEXCOORD_0": 10
          },
          "indices": 11,
          "material": 2,
          "mode": 4
        }
      ]
    },
    {
      "name": "Box_Material.007_0",
      "primitives": [
        {
          "attributes": {
            "NORMAL": 13,
            "POSITION": 12,
            "TEXCOORD_0": 14
          },
          "indices": 15,
          "material": 3,
          "mode": 4
        }
      ]
    },
    {
      "name": "Box_Material.004_0",
      "primitives": [
        {
          "attributes": {
            "NORMAL": 17,
            "POSITION": 16,
            "TEXCOORD_0": 18
          },
          "indices": 19,
          "material": 4,
          "mode": 4
        }
      ]
    },
    {
      "name": "roof_dec_Material.008_0",
      "primitives": [
        {
          "attributes": {
            "NORMAL": 21,
            "POSITION": 20,
            "TEXCOORD_0": 22
          },
          "indices": 23,
          "material": 5,
          "mode": 4
        }
      ]
    },
    {
      "name": "structure_Material.011_0",
      "primitives": [
        {
          "attributes": {
            "NORMAL": 25,
            "POSITION": 24,
            "TEXCOORD_0": 26
          },
          "indices": 27,
          "material": 6,
          "mode": 4
        }
      ]
    },
    {
      "name": "structure_Material.010_0",
      "primitives": [
        {
          "attributes": {
            "NORMAL": 29,
            "POSITION": 28,
            "TEXCOORD_0": 30
          },
          "indices": 31,
          "material": 7,
          "mode": 4
        }
      ]
    },
    {
      "name": "wall_dec_Material.001_0",
      "primitives": [
        {
          "attributes": {
            "NORMAL": 33,
            "POSITION": 32,
            "TEXCOORD_0": 34
          },
          "indices": 35,
          "material": 8,
          "mode": 4
        }
      ]
    },
    {
      "name": "wall_dec_Material.002_0",
      "primitives": [
        {
          "attributes": {
            "NORMAL": 37,
            "POSITION": 36,
            "TEXCOORD_0": 38
          },
          "indices": 39,
          "material": 9,
          "mode": 4
        }
      ]
    }
  ],
  "nodes": [
    {
      "children": [
        1
      ],
      "matrix": [
        1.0,
        0.0,
        0.0,
        0.0,
        0.0,
        2.220446049250313e-16,
        -1.0,
        0.0,
        0.0,
        1.0,
        2.220446049250313e-16,
        0.0,
        0.0,
        0.0,
        0.0,
        1.0
      ],
      "name": "Sketchfab_model"
    },
    {
      "children": [
        2
      ],
      "matrix": [
        0.009999999776482582,
        0.0,
        0.0,
        0.0,
        0.0,
        0.0,
        0.009999999776482582,
        0.0,
        0.0,
        -0.009999999776482582,
        0.0,
        0.0,
        0.0,
        0.0,
        0.0,
        1.0
      ],
      "name": "20e2505e283b47e79601a04ba3adf1f9.fbx"
    },
    {
      "children": [
        3,
        6,
        10,
        12,
        15
      ],
      "name": "RootNode"
    },
    {
      "children": [
        4,
        5
      ],
      "matrix": [
        100.0,
        0.0,
        0.0,
        0.0,
        0.0,
        -1.629206793918314e-05,
        -99.99999999999868,
        0.0,
        0.0,
        99.99999999999868,
        -1.629206793918314e-05,
        0.0,
        0.0,
        0.0,
        0.0,
        1.0
      ],
      "name": "roof"
    },
    {
      "mesh": 0,
      "name": "roof_Material.005_0"
    },
    {
      "mesh": 1,
      "name": "roof_Material.006_0"
    },
    {
      "children": [
        7,
        8,
        9
      ],
      "matrix": [
        100.0,
        0.0,
        0.0,
        0.0,
        0.0,
        -1.629206793918314e-05,
        -99.99999999999868,
        0.0,
        0.0,
        99.99999999999868,
        -1.629206793918314e-05,
        0.0,
        0.0,
        0.0,
        0.0,
        1.0
      ],
      "name": "Box"
    },
    {
      "mesh": 2,
      "name": "Box_Material.003_0"
    },
    {
      "mesh": 3,
      "name": "Box_Material.007_0"
    },
    {
      "mesh": 4,
      "name": "Box_Material.004_0"
    },
    {
      "children": [
        11
      ],
      "matrix": [
        100.0,
        0.0,
        0.0,
        0.0,
        0.0,
        -1.629206793918314e-05,
        -99.99999999999868,
        0.0,
        0.0,
        99.99999999999868,
        -1.629206793918314e-05,
        0.0,
        0.0,
        0.0,
        0.0,
        1.0
      ],
      "name": "roof_dec"
    },
    {
      "mesh": 5,
      "name": "roof_dec_Material.008_0"
    },
    {
      "children": [
        13,
        14
      ],
      "matrix": [
        100.0,
        0.0,
        0.0,
        0.0,
        0.0,
        -1.629206793918314e-05,
        -99.99999999999868,
        0.0,
        0.0,
        99.99999999999868,
        -1.629206793918314e-05,
        0.0,
        0.0,
        0.0,
        0.0,
        1.0
      ],
      "name": "structure"
    },
    {
      "mesh": 6,
      "name": "structure_Material.011_0"
    },
    {
      "mesh": 7,
      "name": "structure_Material.010_0"
    },
    {
      "children": [
        16,
        17
      ],
      "matrix": [
        100.0,
        0.0,
        0.0,
        0.0,
        0.0,
        -1.629206793918314e-05,
        -99.99999999999868,
        0.0,
        0.0,
        99.99999999999868,
        -1.629206793918314e-05,
        0.0,
        0.0,
        0.0,
        0.0,
        1.0
      ],
      "name": "wall_dec"
    },
    {
      "mesh": 8,
      "name": "wall_dec_Material.001_0"
    },
    {
      "mesh": 9,
      "name": "wall_dec_Material.002_0"
    }
  ],
  "samplers": [
    {
      "magFilter": 9729,
      "minFilter": 9987,
      "wrapS": 10497,
      "wrapT": 10497
    }
  ],
  "scene": 0,
  "scenes": [
    {
      "name": "Sketchfab_Scene",
      "nodes": [
        0
      ]
    }
  ],
  "textures": [
    {
      "sampler": 0,
      "source": 0
    },
    {
      "sampler": 0,
      "source": 1
    },
    {
      "sampler": 0,
      "source": 2
    },
    {
      "sampler": 0,
      "source": 3
    },
    {
      "sampler": 0,
      "source": 4
    }
  ]
}
